<svg class="logo__img" xmlns="http://www.w3.org/2000/svg" xmlns:xlink="http://www.w3.org/1999/xlink" version="1.1" width="41" height="43" viewBox="0, 0, 400, 385" fill="#8D81AC"><path d="M180.013 1.159 C 176.536 1.978,173.455 4.506,171.964 7.764 C 170.966 9.945,142.214 309.631,142.214 317.857 C 142.214 326.139,142.817 327.325,159.572 352.010 C 176.284 376.633,176.576 376.925,184.428 376.922 C 191.293 376.919,189.529 378.287,213.634 354.270 C 237.511 330.482,238.651 329.095,240.344 321.794 C 240.854 319.596,261.720 114.926,268.528 45.343 C 271.854 11.355,271.846 13.268,268.678 9.669 C 265.671 6.253,268.382 6.616,222.702 3.521 C 200.413 2.012,182.008 0.788,181.801 0.801 C 181.595 0.815,180.790 0.976,180.013 1.159 M220.263 25.702 C 233.987 26.629,245.765 27.388,246.435 27.389 C 247.513 27.392,247.656 27.512,247.662 28.424 C 247.679 30.800,243.763 69.636,243.474 69.960 C 243.147 70.325,189.835 66.205,188.722 65.729 C 188.203 65.506,188.357 63.206,190.105 45.028 C 191.186 33.780,192.082 24.451,192.096 24.296 C 192.135 23.839,194.142 23.939,220.263 25.702 M56.660 55.784 C 49.915 56.983,44.768 61.280,42.314 67.760 L 41.473 69.981 41.281 109.944 L 41.088 149.906 40.072 151.970 C 39.291 153.557,35.272 158.021,22.672 171.295 C 4.504 190.434,4.513 190.422,4.506 194.954 C 4.501 198.940,5.385 200.378,11.530 206.380 C 28.261 222.720,40.641 235.217,41.423 236.553 C 43.607 240.288,43.527 238.537,43.527 282.552 C 43.527 327.144,43.425 325.161,45.898 328.404 C 46.659 329.401,47.963 330.440,49.333 331.141 L 51.542 332.270 69.767 332.270 L 87.992 332.270 90.117 331.227 C 98.990 326.869,98.757 314.325,89.727 310.191 C 88.156 309.472,87.180 309.384,79.366 309.258 C 72.872 309.154,70.485 308.988,69.710 308.587 C 67.444 307.416,67.543 309.109,67.536 271.219 C 67.527 225.065,69.545 231.913,50.368 212.966 C 30.516 193.352,30.542 196.823,50.107 177.111 C 69.556 157.516,67.296 165.056,67.538 118.949 C 67.688 90.303,67.833 82.183,68.207 81.528 C 69.143 79.892,69.937 79.746,78.987 79.550 C 87.450 79.366,87.658 79.342,89.706 78.336 C 98.993 73.775,98.978 61.119,89.681 56.703 L 87.617 55.722 72.608 55.670 C 64.353 55.641,57.176 55.693,56.660 55.784 M312.121 56.047 C 301.415 59.009,300.238 73.598,310.319 78.380 C 312.311 79.325,312.684 79.366,321.013 79.548 C 330.063 79.747,330.858 79.893,331.793 81.528 C 332.167 82.183,332.312 90.303,332.462 118.949 L 332.654 155.535 333.496 157.756 C 335.107 162.007,336.252 163.354,350.107 177.298 C 369.422 196.736,369.457 193.382,349.734 212.843 C 330.438 231.882,332.473 225.004,332.464 271.219 C 332.457 308.709,332.529 307.357,330.484 308.525 C 329.897 308.861,326.983 309.064,320.826 309.201 C 312.147 309.393,311.974 309.412,309.883 310.432 C 301.009 314.760,301.241 327.292,310.273 331.468 C 312.635 332.560,345.253 332.937,348.776 331.912 C 351.636 331.081,353.805 329.292,355.156 326.652 L 356.285 324.444 356.473 282.578 L 356.660 240.713 357.929 238.006 C 359.231 235.229,364.238 230.044,388.470 206.379 C 394.615 200.378,395.499 198.940,395.494 194.954 C 395.487 190.422,395.496 190.434,377.328 171.295 C 364.728 158.021,360.709 153.557,359.928 151.970 L 358.912 149.906 358.721 109.944 L 358.531 69.981 357.696 67.786 C 355.597 62.260,351.957 58.620,346.499 56.587 C 343.731 55.556,315.498 55.112,312.121 56.047 M215.193 90.364 C 238.567 92.304,241.093 92.576,241.208 93.170 C 241.327 93.788,219.151 314.130,218.946 314.371 C 218.769 314.578,165.669 308.388,165.425 308.132 C 165.253 307.953,185.824 89.043,186.085 88.274 C 186.172 88.015,191.405 88.390,215.193 90.364 " stroke="none" fill="inherit" fill-rule="evenodd"/></svg>