<svg class="logo__img" xmlns="http://www.w3.org/2000/svg" width="41" height="43" viewBox="0 0 400 385" fill="#8D81AC"><path d="M180.013 1.159c-3.477.819-6.558 3.347-8.049 6.605-.998 2.181-29.75 301.867-29.75 310.093 0 8.282.603 9.468 17.358 34.153 16.712 24.623 17.004 24.915 24.856 24.912 6.865-.003 5.101 1.365 29.206-22.652 23.877-23.788 25.017-25.175 26.71-32.476.51-2.198 21.376-206.868 28.184-276.451 3.326-33.988 3.318-32.075.15-35.674-3.007-3.416-.296-3.053-45.976-6.148-22.289-1.509-40.694-2.733-40.901-2.72-.206.014-1.011.175-1.788.358m40.25 24.543c13.724.927 25.502 1.686 26.172 1.687 1.078.003 1.221.123 1.227 1.035.017 2.376-3.899 41.212-4.188 41.536-.327.365-53.639-3.755-54.752-4.231-.519-.223-.365-2.523 1.383-20.701a72432.25 72432.25 0 001.991-20.732c.039-.457 2.046-.357 28.167 1.406M56.66 55.784c-6.745 1.199-11.892 5.496-14.346 11.976l-.841 2.221-.192 39.963-.193 39.962-1.016 2.064c-.781 1.587-4.8 6.051-17.4 19.325-18.168 19.139-18.159 19.127-18.166 23.659-.005 3.986.879 5.424 7.024 11.426 16.731 16.34 29.111 28.837 29.893 30.173 2.184 3.735 2.104 1.984 2.104 45.999 0 44.592-.102 42.609 2.371 45.852.761.997 2.065 2.036 3.435 2.737l2.209 1.129h36.45l2.125-1.043c8.873-4.358 8.64-16.902-.39-21.036-1.571-.719-2.547-.807-10.361-.933-6.494-.104-8.881-.27-9.656-.671-2.266-1.171-2.167.522-2.174-37.368-.009-46.154 2.009-39.306-17.168-58.253-19.852-19.614-19.826-16.143-.261-35.855 19.449-19.595 17.189-12.055 17.431-58.162.15-28.646.295-36.766.669-37.421.936-1.636 1.73-1.782 10.78-1.978 8.463-.184 8.671-.208 10.719-1.214 9.287-4.561 9.272-17.217-.025-21.633l-2.064-.981-15.009-.052c-8.255-.029-15.432.023-15.948.114m255.461.263c-10.706 2.962-11.883 17.551-1.802 22.333 1.992.945 2.365.986 10.694 1.168 9.05.199 9.845.345 10.78 1.98.374.655.519 8.775.669 37.421l.192 36.586.842 2.221c1.611 4.251 2.756 5.598 16.611 19.542 19.315 19.438 19.35 16.084-.373 35.545-19.296 19.039-17.261 12.161-17.27 58.376-.007 37.49.065 36.138-1.98 37.306-.587.336-3.501.539-9.658.676-8.679.192-8.852.211-10.943 1.231-8.874 4.328-8.642 16.86.39 21.036 2.362 1.092 34.98 1.469 38.503.444 2.86-.831 5.029-2.62 6.38-5.26l1.129-2.208.188-41.866.187-41.865 1.269-2.707c1.302-2.777 6.309-7.962 30.541-31.627 6.145-6.001 7.029-7.439 7.024-11.425-.007-4.532.002-4.52-18.166-23.659-12.6-13.274-16.619-17.738-17.4-19.325l-1.016-2.064-.191-39.962-.19-39.963-.835-2.195c-2.099-5.526-5.739-9.166-11.197-11.199-2.768-1.031-31.001-1.475-34.378-.54m-96.928 34.317c23.374 1.94 25.9 2.212 26.015 2.806.119.618-22.057 220.96-22.262 221.201-.177.207-53.277-5.983-53.521-6.239-.172-.179 20.399-219.089 20.66-219.858.087-.259 5.32.116 29.108 2.09" fill="inherit" fill-rule="evenodd"/></svg>